# AST/ASF file generated using VICON BodyLanguage
# -----------------------------------------------
:version 1.10
:name VICON
:units
  mass 1.0
  length 0.45
  angle deg
:documentation
   .ast/.asf automatically generated from VICON data using
   VICON BodyBuilder and BodyLanguage model FoxedUp or BRILLIANT.MOD
:root
   order TX TY TZ RX RY RZ
   axis XYZ
   position 0 0 0  
   orientation 0 0 0 
:bonedata
  begin
     id 1 
     name lhipjoint
     direction 0.567149 -0.783011 0.255413 
     length 2.28399 
     axis 0 0 0  XYZ
  end
  begin
     id 2 
     name lfemur
     direction 0.34202 -0.939693 0  
     length 7.34031  
     axis 0 0 20  XYZ
    dof rx ry rz
    limits (-160.0 20.0)
           (-70.0 70.0)
           (-60.0 70.0)
  end
  begin
     id 3 
     name ltibia
     direction 0.34202 -0.939693 0   
     length 6.9833   
     axis 0 0 20   XYZ
    dof rx
    limits (-10.0 170.0)
  end
  begin
     id 4 
     name lfoot
     direction 0.136498 -0.375025 0.91691   
     length 2.33665   
     axis -90 7.62852e-016 20   XYZ
    dof rx rz
    limits (-45.0 90.0)
           (-70.0 20.0)
  end
  begin
     id 5 
     name ltoes
     direction 1.5367e-011 -4.21617e-011 1   
     length 1.15039   
     axis -90 7.62852e-016 20   XYZ
    dof rx
    limits (-90.0 20.0)
  end
  begin
     id 6 
     name rhipjoint
     direction -0.602854 -0.758518 0.247423   
     length 2.35775  
     axis 0 0 0  XYZ 
  end
  begin
     id 7 
     name rfemur
     direction -0.34202 -0.939693 0   
     length 7.43932   
     axis 0 0 -20   XYZ
    dof rx ry rz
    limits (-160.0 20.0)
           (-70.0 70.0)
           (-70.0 60.0)
  end
  begin
     id 8 
     name rtibia
     direction -0.34202 -0.939693 0   
     length 7.11893   
     axis 0 0 -20   XYZ
    dof rx
    limits (-10.0 170.0)
 end
 begin
     id 9 
     name rfoot
     direction -0.131771 -0.362037 0.922803   
     length 2.53019  
     axis -90 -7.62852e-016 -20   XYZ
    dof rx rz
    limits (-45.0 90.0)
           (-20.0 70.0)
  end
  begin
     id 10 
     name rtoes
     direction -1.53733e-011 -4.21932e-011 1   
     length 1.24596   
     axis -90 -7.62852e-016 -20   XYZ
    dof rx
    limits (-90.0 20.0)
  end
  begin
     id 11 
     name lowerback
     direction 0.0235427 0.999023 -0.0374125   
     length 2.21768   
     axis 0 0 0   XYZ
    dof rx ry rz
    limits (-20.0 45.0)
           (-30.0 30.0)
           (-30.0 30.0)
  end
  begin
     id 12 
     name upperback
     direction 0.0302156 0.996818 -0.073759   
     length 2.20352   
     axis 0 0 0   XYZ
    dof rx ry rz
    limits (-20.0 45.0)
           (-30.0 30.0)
           (-30.0 30.0)
  end
  begin
     id 13 
     name thorax
     direction 0.0187169 0.998235 -0.0563532   
     length 2.22103   
     axis 0 0 0   XYZ
    dof rx ry rz
    limits (-20.0 45.0)
           (-30.0 30.0)
           (-30.0 30.0)
  end
  begin
     id 14 
     name lowerneck
     direction -0.119528 0.987423 0.103481   
     length 1.72948   
     axis 0 0 0   XYZ
    dof rx ry rz
    limits (-20.0 45.0)
           (-30.0 30.0)
           (-30.0 30.0)
  end
  begin
     id 15 
     name upperneck
     direction 0.248049 0.963095 -0.104496   
     length 1.74979   
     axis 0 0 0   XYZ
    dof rx ry rz
    limits (-20.0 45.0)
           (-30.0 30.0)
           (-30.0 30.0)
  end
  begin
     id 16
     name head
     direction 0.0903589 0.994284 -0.056876  
     length 1.78268  
     axis 0 0 0   XYZ
    dof rx ry rz
    limits (-20.0 45.0)
           (-30.0 30.0)
           (-30.0 30.0)
  end
  begin
     id 17 
     name lclavicle
     direction 0.946008 0.242039 -0.215608  
     length 3.80783  
     axis 0 0 0   XYZ
    dof ry rz
    limits (-20.0 10.0)
           (0.0 20.0)
  end
  begin
     id 18 
     name lhumerus
     direction 1 -4.48991e-011 -2.25695e-027   
     length 4.83125   
     axis 180 -30 -90   XYZ
    dof rx ry rz
    limits (-60.0 90.0)
           (-90.0 90.0)
           (-90.0 90.0)
  end
  begin
     id 19
     name lradius
     direction 0.999991 0.00366712 -0.00211721   
     length 3.00391   
     axis 180 -30 -90   XYZ
    dof rx
    limits (-10.0 170.0)
  end
  begin
     id 20
     name lwrist
     direction 0.999991 0.00393016 -0.00141978   
     length 1.50195   
     axis -1.00488e-014 90 90   XYZ
    dof ry
    limits (-180.0 0.0)
 end
  begin
     id 21 
     name lhand
     direction 1 -4.49123e-011 2.72098e-026   
     length 1.2717   
     axis -1.73687e-014 90 90   XYZ
    dof rx rz
    limits (-90.0 90.0)
           (-45.0 45.0)
  end
  begin
     id 22 
     name lfingers
     direction 1 -4.48678e-011 5.4479e-026   
     length 1.02528   
     axis -3.47372e-014 90 90   XYZ
    dof rx
    limits (0.0 90.0)
  end
  begin
     id 23
     name lthumb
     direction 0.707107 -6.34851e-011 0.707107   
     length 1.4721   
     axis -90 45 -1.62303e-014   XYZ
    dof rx rz
    limits (-45.0 45.0)
           (-45.0 45.0)
  end
  begin
     id 24 
     name rclavicle
     direction -0.981723 0.189447 -0.0181673   
     length 3.74989  
     axis 0 0 0   XYZ 
    dof ry rz
    limits (-10.0 20.0)
           (-20.0 0.0)
  end
  begin
     id 25 
     name rhumerus
     direction -1 -4.48985e-011 2.38206e-027  
     length 4.61118   
     axis 180 30 90   XYZ
    dof rx ry rz
    limits (-90.0 60.0)
           (-90.0 90.0)
           (-90.0 90.0)
  end
  begin
     id 26 
     name rradius
     direction -1 -4.48977e-011 7.41019e-027   
     length 2.91491   
     axis 180 30 90   XYZ
    dof rx
    limits (-10.0 170.0)
  end
  begin
     id 27 
     name rwrist
     direction -1 -4.48549e-011 1.3624e-026   
     length 1.45745   
     axis -1.00488e-014 -90 -90   XYZ
    dof ry
    limits (-180.0 0.0)
  end
  begin
     id 28
     name rhand
     direction -1 -4.49107e-011 2.72109e-026   
     length 1.30769   
     axis -1.73687e-014 -90 -90   XYZ
    dof rx rz
    limits (-90.0 90.0)
           (-45.0 45.0)
  end
  begin
     id 29
     name rfingers
     direction -1 -4.48919e-011 5.44468e-026   
     length 1.05429   
     axis -3.47372e-014 -90 -90   XYZ
    dof rx
    limits (0.0 90.0)
  end
  begin
     id 30
     name rthumb
     direction -0.707107 -6.35315e-011 0.707107   
     length 1.51376   
     axis -90 -45 1.62303e-014   XYZ
    dof rx rz
    limits (-45.0 45.0)
           (-45.0 45.0)
  end
:hierarchy
  begin
    root lhipjoint rhipjoint lowerback
    lhipjoint lfemur
    lfemur ltibia
    ltibia lfoot
    lfoot ltoes
    rhipjoint rfemur
    rfemur rtibia
    rtibia rfoot
    rfoot rtoes
    lowerback upperback
    upperback thorax
    thorax lowerneck lclavicle rclavicle
    lowerneck upperneck
    upperneck head
    lclavicle lhumerus
    lhumerus lradius
    lradius lwrist
    lwrist lhand lthumb
    lhand lfingers
    rclavicle rhumerus
    rhumerus rradius
    rradius rwrist
    rwrist rhand rthumb
    rhand rfingers
  end

#!OML:ASF X:\für Bonn\!DataBase\2005_08_11_Bastian_Final\c3d\Bastian.ASF
:FULLY-SPECIFIED
:DEGREES
1
root 1.95007 17.0542 -0.383082 163.667 -16.4192 -175.077
lowerback -0.964079 -0.280784 9.29284
upperback 4.44342 -1.10315 2.13735
thorax 5.09488 -0.336784 -3.03381
lowerneck 1.14883 -9.21508 -7.9043
upperneck 2.74201 -12.4884 4.10671
head 1.48409 -6.30492 2.45175
rclavicle 3.61291e-014 -1.51076e-014
rhumerus -37.4231 46.2976 -87.3567
rradius 68.1264
rwrist -8.94949
rhand -40.3491 15.1627
rfingers 7.12502
rthumb -13.3043 -14.3926
lclavicle 3.61291e-014 -1.51076e-014
lhumerus -29.8401 -38.1533 100.742
lradius 40.7155
lwrist 5.47408
lhand -39.307 -4.22374
lfingers 7.12502
lthumb -12.2996 25.3945
rfemur 7.50085 -5.22861 28.6281
rtibia 38.1047
rfoot -28.8565 -21.1413
rtoes 4.10741
lfemur 0.23728 -0.884851 -11.0515
ltibia 41.5323
lfoot -17.059 -9.65636
ltoes -21.331
2
root 1.9195 17.0388 -0.383594 163.526 -17.0527 -174.674
lowerback -0.833407 -0.48651 9.34155
upperback 4.45059 -1.3777 2.22257
thorax 4.99674 -0.480969 -2.98323
lowerneck 1.07407 -9.45255 -7.81493
upperneck 2.65018 -12.8049 4.36198
head 1.50132 -6.45759 2.50614
rclavicle -1.04362e-015 -1.19271e-014
rhumerus -39.238 45.5128 -89.2346
rradius 64.7438
rwrist -8.8266
rhand -41.0404 14.4476
rfingers 7.12502
rthumb -13.9705 -15.0629
lclavicle -1.04362e-015 -1.19271e-014
lhumerus -28.0958 -38.088 100.268
lradius 42.5276
lwrist 4.95715
lhand -39.8998 -5.33992
lfingers 7.12502
lthumb -12.8711 24.2432
rfemur 7.50323 -6.23531 28.5685
rtibia 38.1703
rfoot -28.6361 -20.9513
rtoes 3.64809
lfemur 0.443457 -1.21338 -10.9488
ltibia 41.0538
lfoot -17.7475 -9.50502
ltoes -22.0327
3
root 1.88818 17.0219 -0.381706 163.36 -17.6973 -174.258
lowerback -0.696616 -0.684571 9.39536
upperback 4.49978 -1.64865 2.31754
thorax 4.94136 -0.62214 -2.92395
lowerneck 0.94747 -9.7011 -7.74938
upperneck 2.55241 -13.1339 4.66085
head 1.53247 -6.61586 2.57496
rclavicle -2.50966e-014 4.37326e-014
rhumerus -40.6059 44.554 -90.8427
rradius 61.1257
rwrist -8.79607
rhand -41.7988 13.9334
rfingers 7.12502
rthumb -14.7013 -15.5253
lclavicle -2.50966e-014 4.37326e-014
lhumerus -26.2864 -38.0851 99.7983
lradius 44.4389
lwrist 4.33224
lhand -40.5414 -6.48421
lfingers 7.12502
lthumb -13.4896 23.0589
rfemur 7.49436 -7.22344 28.5154
rtibia 38.2502
rfoot -28.4246 -20.807
rtoes 3.03507
lfemur 0.587923 -1.54584 -10.8414
ltibia 40.6696
lfoot -18.2362 -9.34824
ltoes -22.7201
4
root 1.85493 17.0106 -0.378587 163.15 -18.3067 -173.847
lowerback -0.511507 -0.872931 9.41683
upperback 4.593 -1.90913 2.43522
thorax 4.90864 -0.760162 -2.82082
lowerneck 0.752476 -9.96713 -7.63742
upperneck 2.46166 -13.4796 4.90066
head 1.57127 -6.78157 2.61145
rclavicle -6.14245e-014 -3.18055e-014
rhumerus -41.4922 43.5562 -92.1396
rradius 57.2995
rwrist -8.90001
rhand -42.5108 13.4361
rfingers 7.12502
rthumb -15.3872 -15.9713
lclavicle -6.14245e-014 -3.18055e-014
lhumerus -24.3725 -38.0082 99.3425
lradius 46.4044
lwrist 3.54335
lhand -41.0958 -7.6825
lfingers 7.12502
lthumb -14.0239 21.8244
rfemur 7.48155 -8.18367 28.4106
rtibia 38.3607
rfoot -28.2454 -20.5426
rtoes 2.53903
lfemur 0.73691 -1.94633 -10.7555
ltibia 40.3611
lfoot -18.5411 -9.17052
ltoes -22.8819
5
root 1.82109 17.0081 -0.375557 162.93 -18.9133 -173.495
lowerback -0.319218 -1.05298 9.37984
upperback 4.73859 -2.16027 2.52615
thorax 4.92984 -0.8924 -2.71218
lowerneck 0.444271 -10.2395 -7.40057
upperneck 2.39844 -13.8257 5.07954
head 1.62402 -6.94544 2.59925
rclavicle 6.14245e-014 1.03368e-014
rhumerus -41.9491 42.2886 -93.1541
rradius 53.3971
rwrist -9.03938
rhand -43.0228 12.9417
rfingers 7.12502
rthumb -15.8803 -16.4271
lclavicle 6.14245e-014 1.03368e-014
lhumerus -22.3412 -37.9495 98.8343
lradius 48.3851
lwrist 2.66082
lhand -41.6206 -9.01681
lfingers 7.12502
lthumb -14.5297 20.4544
rfemur 7.44689 -9.09323 28.2215
rtibia 38.5469
rfoot -28.0445 -20.2448
rtoes 2.15814
lfemur 0.870157 -2.31266 -10.7237
ltibia 40.0939
lfoot -18.7168 -9.05786
ltoes -23.052
6
root 1.78544 17.0082 -0.369976 162.685 -19.511 -173.187
lowerback -0.0742971 -1.23438 9.30466
upperback 4.91333 -2.41174 2.62012
thorax 4.95446 -1.02729 -2.57716
lowerneck 0.117576 -10.5005 -7.14757
upperneck 2.31793 -14.1558 5.23194
head 1.66936 -7.10095 2.57512
rclavicle 3.01656e-014 -5.56597e-014
rhumerus -42.0649 40.7333 -93.8423
rradius 49.5481
rwrist -9.07408
rhand -43.1933 12.1582
rfingers 7.12502
rthumb -16.0445 -17.1975
lclavicle 3.01656e-014 -5.56597e-014
lhumerus -20.271 -37.9223 98.342
lradius 50.4234
lwrist 1.75234
lhand -42.0693 -10.2869
lfingers 7.12502
lthumb -14.962 19.1527
rfemur 7.40792 -10.1269 27.8747
rtibia 38.8502
rfoot -27.8064 -19.6682
rtoes 1.87914
lfemur 1.01654 -2.77069 -10.7599
ltibia 39.839
lfoot -18.8003 -9.0394
ltoes -22.614
7
root 1.74924 17.0096 -0.362433 162.45 -20.0891 -172.974
lowerback 0.207372 -1.41078 9.15545
upperback 5.11754 -2.65211 2.68571
thorax 4.99284 -1.15844 -2.42865
lowerneck -0.2445 -10.7526 -6.81959
upperneck 2.21485 -14.471 5.32763
head 1.70062 -7.24827 2.51907
rclavicle -2.49972e-014 3.33958e-014
rhumerus -41.8846 38.9816 -94.2889
rradius 45.8251
rwrist -9.3291
rhand -42.9401 11.1739
rfingers 7.12502
rthumb -15.8007 -18.2012
lclavicle -2.49972e-014 3.33958e-014
lhumerus -18.1502 -37.832 97.8306
lradius 52.4979
lwrist 0.764004
lhand -42.4472 -11.4844
lfingers 7.12502
lthumb -15.326 17.9277
rfemur 7.31758 -11.151 27.3933
rtibia 39.3236
rfoot -27.4962 -19.005
rtoes 1.57554
lfemur 1.19548 -3.28883 -10.9054
ltibia 39.573
lfoot -18.7712 -9.06245
ltoes -21.4376
8
root 1.71202 17.016 -0.350846 162.253 -20.6442 -172.901
lowerback 0.531193 -1.57727 8.92884
upperback 5.36396 -2.87604 2.71254
thorax 5.05605 -1.28291 -2.27543
lowerneck -0.687789 -10.9846 -6.60983
upperneck 2.14884 -14.7589 5.47808
head 1.77083 -7.38134 2.49435
rclavicle 4.47266e-015 -2.14687e-014
rhumerus -41.4921 37.3033 -94.6047
rradius 42.2729
rwrist -9.91413
rhand -42.4191 9.82459
rfingers 7.12502
rthumb -15.2989 -19.5896
lclavicle 4.47266e-015 -2.14687e-014
lhumerus -15.9226 -37.8022 97.2793
lradius 54.5576
lwrist -0.210948
lhand -42.8251 -12.5555
lfingers 7.12502
lthumb -15.69 16.8284
rfemur 7.13473 -12.1327 26.7373
rtibia 40.0198
rfoot -27.0988 -18.283
rtoes 1.06464
lfemur 1.39446 -3.7795 -11.1938
ltibia 39.2748
lfoot -18.6641 -9.14675
ltoes -19.8378
9
root 1.67418 17.0218 -0.334348 162.05 -21.192 -172.891
lowerback 0.934153 -1.74437 8.69647
upperback 5.61043 -3.09381 2.72563
thorax 5.07636 -1.40752 -2.12878
lowerneck -1.05741 -11.1876 -6.65502
upperneck 2.06301 -15.0142 5.75367
head 1.85366 -7.49987 2.55651
rclavicle 3.14825e-014 -2.06736e-014
rhumerus -41.1674 35.8607 -94.9624
rradius 39.0504
rwrist -11.1821
rhand -41.7236 8.19585
rfingers 7.12502
rthumb -14.6288 -21.2682
lclavicle 3.14825e-014 -2.06736e-014
lhumerus -13.7002 -37.802 96.7443
lradius 56.6521
lwrist -1.08654
lhand -43.1441 -13.4984
lfingers 7.12502
lthumb -15.9972 15.8611
rfemur 6.83782 -13.0424 26.002
rtibia 40.9694
rfoot -26.5784 -17.5705
rtoes -0.233362
lfemur 1.627 -4.24528 -11.5427
ltibia 38.947
lfoot -18.4953 -9.23361
ltoes -18.1334
10
root 1.63643 17.0285 -0.314618 161.857 -21.6918 -172.951
lowerback 1.3558 -1.90388 8.46737
upperback 5.90121 -3.30901 2.72059
thorax 5.13492 -1.5307 -2.00137
lowerneck -1.12583 -11.3595 -6.82116
upperneck 1.75769 -15.239 6.14133
head 1.83197 -7.60806 2.70061
rclavicle -7.10655e-015 1.59028e-015
rhumerus -40.9978 34.8228 -95.4574
rradius 36.2708
rwrist -13.2214
rhand -41.0899 6.3386
rfingers 7.12502
rthumb -14.0183 -23.1687
lclavicle -7.10655e-015 1.59028e-015
lhumerus -11.3979 -37.8194 96.1754
lradius 58.7532
lwrist -1.78148
lhand -43.4796 -14.2849
lfingers 7.12502
lthumb -16.3202 15.0484
rfemur 6.41202 -13.787 25.2336
rtibia 42.1822
rfoot -25.8343 -16.9398
rtoes -2.329
lfemur 1.89915 -4.69392 -11.9704
ltibia 38.605
lfoot -18.257 -9.26899
ltoes -16.4441
11
root 1.59753 17.0333 -0.290546 161.678 -22.1844 -173.09
lowerback 1.82271 -2.07539 8.23341
upperback 6.20032 -3.5366 2.6735
thorax 5.17505 -1.66091 -1.91165
lowerneck -0.98885 -11.4837 -6.95792
upperneck 1.32365 -15.4088 6.56058
head 1.72976 -7.69326 2.8706
rclavicle -2.27608e-014 -8.0309e-014
rhumerus -41.1133 34.1973 -96.2116
rradius 33.9885
rwrist -16.1061
rhand -40.64 4.41161
rfingers 7.12502
rthumb -13.5846 -25.1252
lclavicle -2.27608e-014 -8.0309e-014
lhumerus -9.10914 -37.8257 95.6033
lradius 60.8327
lwrist -2.40816
lhand -43.8617 -14.9967
lfingers 7.12502
lthumb -16.688 14.3059
rfemur 5.83661 -14.4099 24.3949
rtibia 43.6588
rfoot -24.8085 -16.3593
rtoes -4.83718
lfemur 2.20998 -5.15054 -12.5032
ltibia 38.2538
lfoot -17.976 -9.23438
ltoes -14.9283
12
root 1.55927 17.0364 -0.263971 161.491 -22.6366 -173.253
lowerback 2.33788 -2.25289 7.93067
upperback 6.52554 -3.78099 2.66582
thorax 5.22245 -1.8079 -1.74002
lowerneck -0.931712 -11.5886 -7.02246
upperneck 0.901582 -15.5423 6.86283
head 1.6259 -7.75997 2.98833
rclavicle -8.69683e-016 -3.97569e-014
rhumerus -41.5973 34.2801 -97.2448
rradius 32.3188
rwrist -19.988
rhand -40.5424 2.49835
rfingers 7.12502
rthumb -13.4906 -27.0447
lclavicle -8.69683e-016 -3.97569e-014
lhumerus -6.77744 -37.791 95.0398
lradius 62.9302
lwrist -2.88021
lhand -44.3104 -15.6099
lfingers 7.12502
lthumb -17.12 13.6559
rfemur 5.1193 -14.8633 23.5742
rtibia 45.4055
rfoot -23.5726 -15.7845
rtoes -7.19522
lfemur 2.56209 -5.5457 -13.0466
ltibia 37.8819
lfoot -17.6445 -9.18373
ltoes -13.4677
13
root 1.52071 17.0422 -0.234604 161.264 -23.0433 -173.39
lowerback 2.9333 -2.44333 7.67347
upperback 6.84757 -4.04311 2.66241
thorax 5.22128 -1.96709 -1.58244
lowerneck -0.835819 -11.644 -7.11939
upperneck 0.468311 -15.6125 7.20688
head 1.51453 -7.79705 3.13185
rclavicle 8.32411e-016 -3.97569e-015
rhumerus -42.4629 34.8473 -98.5972
rradius 31.2302
rwrist -24.511
rhand -40.835 0.605109
rfingers 7.12502
rthumb -13.7726 -28.919
lclavicle 8.32411e-016 -3.97569e-015
lhumerus -4.45406 -37.7274 94.4588
lradius 65.0338
lwrist -3.26755
lhand -44.7768 -16.167
lfingers 7.12502
lthumb -17.5688 13.0592
rfemur 4.24366 -15.1712 22.8112
rtibia 47.4199
rfoot -22.0528 -15.2163
rtoes -9.3004
lfemur 2.94323 -5.84094 -13.5384
ltibia 37.4958
lfoot -17.3026 -9.17177
ltoes -12.2379
14
root 1.4832 17.0488 -0.203521 161.052 -23.431 -173.601
lowerback 3.5597 -2.61676 7.3462
upperback 7.20137 -4.28928 2.64032
thorax 5.24361 -2.12341 -1.40228
lowerneck -0.812822 -11.708 -7.15982
upperneck 0.0575008 -15.6893 7.50899
head 1.41492 -7.83704 3.24725
rclavicle -1.3126e-014 -1.19271e-014
rhumerus -43.4234 35.4821 -99.9829
rradius 30.4921
rwrist -29.2332
rhand -41.4163 -0.90388
rfingers 7.12502
rthumb -14.3328 -30.3891
lclavicle -1.3126e-014 -1.19271e-014
lhumerus -2.05935 -37.6073 93.9131
lradius 67.0515
lwrist -3.68558
lhand -45.2507 -16.7038
lfingers 7.12502
lthumb -18.0249 12.481
rfemur 3.20396 -15.2752 22.0025
rtibia 49.7044
rfoot -20.1956 -14.4973
rtoes -10.7498
lfemur 3.3441 -6.09314 -14.0955
ltibia 37.1057
lfoot -16.9438 -9.15004
ltoes -10.8914
